<svg width="18" height="18" viewBox="0 0 18 18" fill="none" xmlns="http://www.w3.org/2000/svg">
<circle cx="9" cy="9" r="9" fill="#D9D9D9" fill-opacity="0.23"/>
<path d="M11.0456 7.36364C11.5724 7.36364 12 7.79127 12 8.31818V11.9995C12 12.7952 11.6839 13.5584 11.1213 14.1212C10.5587 14.6839 9.79565 15 9 15C8.20435 15 7.44129 14.6839 6.87868 14.1212C6.31607 13.5584 6 12.7952 6 11.9995V8.31818C6 7.79127 6.42701 7.36364 6.95437 7.36364H11.0456ZM8.99836 3C9.24902 3 9.49723 3.04938 9.72881 3.14532C9.96039 3.24126 10.1708 3.38188 10.3481 3.55916C10.5253 3.73644 10.6659 3.94689 10.7618 4.17851C10.8577 4.41013 10.9071 4.65839 10.9071 4.90909C10.9071 5.1598 10.8577 5.40805 10.7618 5.63967C10.6659 5.87129 10.5253 6.08175 10.3481 6.25902C10.1708 6.4363 9.96039 6.57692 9.72881 6.67286C9.49723 6.7688 9.24902 6.81818 8.99836 6.81818C8.49213 6.81818 8.00664 6.61705 7.64868 6.25902C7.29072 5.901 7.08962 5.41541 7.08962 4.90909C7.08962 4.40277 7.29072 3.91718 7.64868 3.55916C8.00664 3.20114 8.49213 3 8.99836 3Z" fill="#FBB040"/>
</svg>
